<?xml version="1.0" encoding="UTF-8"?>
<!DOCTYPE svg PUBLIC "-//W3C//DTD SVG 1.1//EN" "http://www.w3.org/Graphics/SVG/1.1/DTD/svg11.dtd">
<svg xmlns="http://www.w3.org/2000/svg" version="1.1" width="512px" height="512px" style="shape-rendering:geometricPrecision; text-rendering:geometricPrecision; image-rendering:optimizeQuality; fill-rule:evenodd; clip-rule:evenodd" xmlns:xlink="http://www.w3.org/1999/xlink">
<g><path style="opacity:0.977" fill="#010101" d="M 511.5,256.5 C 511.5,293.167 511.5,329.833 511.5,366.5C 504.772,413.468 482.105,450.634 443.5,478C 448.992,483.025 454.992,483.692 461.5,480C 472.98,468.371 486.313,465.704 501.5,472C 505.503,474.15 508.836,476.984 511.5,480.5C 511.5,483.167 511.5,485.833 511.5,488.5C 507.907,493.391 503.241,494.557 497.5,492C 491.948,486.13 485.614,485.13 478.5,489C 467.826,500.168 455.159,503.168 440.5,498C 435.785,495.973 431.785,492.973 428.5,489C 420.771,484.955 414.104,486.289 408.5,493C 392.098,503.866 376.764,502.533 362.5,489C 354.771,484.955 348.104,486.289 342.5,493C 326.098,503.866 310.764,502.533 296.5,489C 288.771,484.955 282.104,486.289 276.5,493C 260.098,503.866 244.764,502.533 230.5,489C 222.771,484.955 216.104,486.289 210.5,493C 194.098,503.866 178.764,502.533 164.5,489C 156.771,484.955 150.104,486.289 144.5,493C 128.098,503.866 112.764,502.533 98.5,489C 90.173,484.883 83.173,486.55 77.5,494C 61.1676,503.945 46.1676,502.279 32.5,489C 25.3858,485.13 19.0524,486.13 13.5,492C 7.78244,494.555 3.11577,493.388 -0.5,488.5C -0.5,485.833 -0.5,483.167 -0.5,480.5C 10.6785,468.429 24.0118,465.595 39.5,472C 43.4103,473.907 46.7436,476.573 49.5,480C 56.0081,483.692 62.0081,483.025 67.5,478C 28.8946,450.634 6.22795,413.468 -0.5,366.5C -0.5,349.833 -0.5,333.167 -0.5,316.5C 2.22189,307.943 7.88855,302.109 16.5,299C 36.1122,297.549 55.7789,297.049 75.5,297.5C 75.0382,266.458 75.5382,235.458 77,204.5C 83.1348,190.343 93.9681,184.343 109.5,186.5C 109.181,175.456 109.681,164.456 111,153.5C 114.36,144.138 120.86,138.305 130.5,136C 146.497,135.5 162.497,135.333 178.5,135.5C 178.333,99.1651 178.5,62.8318 179,26.5C 185.264,10.6068 196.764,4.77343 213.5,9C 222.265,12.7633 227.765,19.2633 230,28.5C 230.5,64.1651 230.667,99.8318 230.5,135.5C 246.17,135.333 261.837,135.5 277.5,136C 288.249,138.416 295.082,144.916 298,155.5C 298.5,165.828 298.666,176.161 298.5,186.5C 315.111,184.378 326.277,191.044 332,206.5C 332.5,236.832 332.667,267.165 332.5,297.5C 339.863,297.831 347.197,297.497 354.5,296.5C 369.314,279.185 384.314,262.019 399.5,245C 403.453,242.19 407.787,240.19 412.5,239C 426.132,237.902 439.799,237.402 453.5,237.5C 466.872,237.392 480.205,237.892 493.5,239C 502.018,242.353 508.018,248.186 511.5,256.5 Z"/></g>
<g><path style="opacity:1" fill="#7e8d93" d="M 212.5,135.5 C 207.167,135.5 201.833,135.5 196.5,135.5C 196.5,100.833 196.5,66.1667 196.5,31.5C 196.738,28.8517 198.072,27.0183 200.5,26C 205.212,24.5568 209.045,25.7235 212,29.5C 212.5,64.8318 212.667,100.165 212.5,135.5 Z"/></g>
<g><path style="opacity:1" fill="#596468" d="M 196.5,31.5 C 196.5,66.1667 196.5,100.833 196.5,135.5C 201.833,135.5 207.167,135.5 212.5,135.5C 207.025,136.489 201.358,136.822 195.5,136.5C 195.168,101.329 195.502,66.3294 196.5,31.5 Z"/></g>
<g><path style="opacity:1" fill="#9d9d9d" d="M 134.5,153.5 C 177.172,153.167 219.839,153.5 262.5,154.5C 263.477,165.115 263.81,175.781 263.5,186.5C 218.167,186.5 172.833,186.5 127.5,186.5C 127.334,177.161 127.5,167.827 128,158.5C 129.159,155.507 131.325,153.84 134.5,153.5 Z"/></g>
<g><path style="opacity:1" fill="#676767" d="M 134.5,153.5 C 180.998,152.335 227.665,152.168 274.5,153C 277.333,154.5 279.5,156.667 281,159.5C 281.5,168.827 281.666,178.161 281.5,187.5C 229.997,187.832 178.664,187.499 127.5,186.5C 172.833,186.5 218.167,186.5 263.5,186.5C 263.81,175.781 263.477,165.115 262.5,154.5C 219.839,153.5 177.172,153.167 134.5,153.5 Z"/></g>
<g><path style="opacity:1" fill="#f3f3f3" d="M 296.5,204.5 C 298.058,209.828 298.725,215.328 298.5,221C 298.499,225.347 298.166,229.514 297.5,233.5C 295.775,228.939 292.775,225.439 288.5,223C 280.059,221.896 271.559,221.396 263,221.5C 255.833,221.667 248.667,221.833 241.5,222C 235.856,224.474 232.189,228.641 230.5,234.5C 229.503,255.327 229.169,276.327 229.5,297.5C 184.167,297.5 138.833,297.5 93.5,297.5C 93.3334,268.165 93.5,238.831 94,209.5C 94.8333,207.333 96.3333,205.833 98.5,205C 164.499,204.5 230.499,204.333 296.5,204.5 Z"/></g>
<g><path style="opacity:1" fill="#ced7db" d="M 296.5,204.5 C 301.179,204.334 305.845,204.501 310.5,205C 312.464,206.451 313.797,208.284 314.5,210.5C 314.5,239.5 314.5,268.5 314.5,297.5C 309.167,297.5 303.833,297.5 298.5,297.5C 298.831,276.327 298.497,255.327 297.5,234.5C 297.5,234.167 297.5,233.833 297.5,233.5C 298.166,229.514 298.499,225.347 298.5,221C 298.725,215.328 298.058,209.828 296.5,204.5 Z"/></g>
<g><path style="opacity:1" fill="#808587" d="M 314.5,210.5 C 315.498,239.662 315.831,268.995 315.5,298.5C 309.5,298.5 303.5,298.5 297.5,298.5C 297.5,277.167 297.5,255.833 297.5,234.5C 298.497,255.327 298.831,276.327 298.5,297.5C 303.833,297.5 309.167,297.5 314.5,297.5C 314.5,268.5 314.5,239.5 314.5,210.5 Z"/></g>
<g><path style="opacity:1" fill="#030404" d="M 122.5,221.5 C 148.169,221.333 173.835,221.5 199.5,222C 205.501,223.336 209.668,226.836 212,232.5C 212.667,244.5 212.667,256.5 212,268.5C 209.859,274.641 205.693,278.807 199.5,281C 174.167,281.667 148.833,281.667 123.5,281C 116.903,278.737 112.736,274.237 111,267.5C 110.333,256.167 110.333,244.833 111,233.5C 112.08,231.004 113.414,228.67 115,226.5C 117.479,224.686 119.979,223.019 122.5,221.5 Z"/></g>
<g><path style="opacity:1" fill="#02a8f4" d="M 178.5,238.5 C 178.5,246.833 178.5,255.167 178.5,263.5C 161.5,263.5 144.5,263.5 127.5,263.5C 127.5,255.167 127.5,246.833 127.5,238.5C 144.5,238.5 161.5,238.5 178.5,238.5 Z"/></g>
<g><path style="opacity:1" fill="#0273b4" d="M 178.5,238.5 C 184.167,238.5 189.833,238.5 195.5,238.5C 195.5,247.167 195.5,255.833 195.5,264.5C 172.661,264.831 149.994,264.497 127.5,263.5C 144.5,263.5 161.5,263.5 178.5,263.5C 178.5,255.167 178.5,246.833 178.5,238.5 Z"/></g>
<g><path style="opacity:1" fill="#5d5d5d" d="M 247.5,238.5 C 247.5,258.167 247.5,277.833 247.5,297.5C 258.5,297.5 269.5,297.5 280.5,297.5C 280.5,277.833 280.5,258.167 280.5,238.5C 281.497,258.326 281.83,278.326 281.5,298.5C 269.833,298.5 258.167,298.5 246.5,298.5C 246.17,278.326 246.503,258.326 247.5,238.5 Z"/></g>
<g><path style="opacity:1" fill="#9d9e9d" d="M 247.5,238.5 C 258.5,238.5 269.5,238.5 280.5,238.5C 280.5,258.167 280.5,277.833 280.5,297.5C 269.5,297.5 258.5,297.5 247.5,297.5C 247.5,277.833 247.5,258.167 247.5,238.5 Z"/></g>
<g><path style="opacity:1" fill="#9d9d9d" d="M 475.5,255.5 C 475.709,256.922 476.209,258.255 477,259.5C 477.5,272.162 477.667,284.829 477.5,297.5C 444.167,297.5 410.833,297.5 377.5,297.5C 388.607,283.225 400.607,269.725 413.5,257C 434.1,255.535 454.766,255.035 475.5,255.5 Z"/></g>
<g><path style="opacity:1" fill="#6e6e6e" d="M 475.5,255.5 C 479.846,255.334 484.179,255.501 488.5,256C 490.624,257.122 492.457,258.622 494,260.5C 494.5,273.162 494.667,285.829 494.5,298.5C 454.761,298.833 415.761,298.499 377.5,297.5C 410.833,297.5 444.167,297.5 477.5,297.5C 477.667,284.829 477.5,272.162 477,259.5C 476.209,258.255 475.709,256.922 475.5,255.5 Z"/></g>
<g><path style="opacity:1" fill="#929292" d="M 230.5,234.5 C 230.5,255.833 230.5,277.167 230.5,298.5C 184.664,298.832 138.997,298.499 93.5,297.5C 138.833,297.5 184.167,297.5 229.5,297.5C 229.169,276.327 229.503,255.327 230.5,234.5 Z"/></g>
<g><path style="opacity:1" fill="#7e8d93" d="M 477.5,315.5 C 477.5,320.833 477.5,326.167 477.5,331.5C 323.833,331.5 170.167,331.5 16.5,331.5C 16.3347,327.818 16.5014,324.152 17,320.5C 17.9476,318.43 19.4476,316.93 21.5,316C 173.5,315.5 325.5,315.333 477.5,315.5 Z"/></g>
<g><path style="opacity:1" fill="#596367" d="M 477.5,315.5 C 483.167,315.5 488.833,315.5 494.5,315.5C 494.5,321.167 494.5,326.833 494.5,332.5C 334.999,332.833 175.666,332.5 16.5,331.5C 170.167,331.5 323.833,331.5 477.5,331.5C 477.5,326.167 477.5,320.833 477.5,315.5 Z"/></g>
<g><path style="opacity:1" fill="#f24234" d="M 477.5,349.5 C 475.943,399.957 454.943,439.957 414.5,469.5C 406.778,471.527 400.111,475.36 394.5,481C 388.985,483.238 383.651,482.905 378.5,480C 368.62,470.28 356.954,467.28 343.5,471C 338.616,473.22 334.282,476.22 330.5,480C 324.472,483.265 318.472,483.265 312.5,480C 302.62,470.28 290.954,467.28 277.5,471C 272.616,473.22 268.282,476.22 264.5,480C 258.472,483.265 252.472,483.265 246.5,480C 236.62,470.28 224.954,467.28 211.5,471C 205.216,474.301 199.216,477.968 193.5,482C 190.5,482.667 187.5,482.667 184.5,482C 179.772,478.274 174.772,474.941 169.5,472C 161.589,469.196 153.589,468.863 145.5,471C 139.984,473.589 134.984,476.922 130.5,481C 126.594,482.434 122.594,482.767 118.5,482C 113.772,478.274 108.772,474.941 103.5,472C 98.3219,470.202 92.9885,469.202 87.5,469C 42.2027,442.269 18.536,402.436 16.5,349.5C 170.167,349.5 323.833,349.5 477.5,349.5 Z"/></g>
<g><path style="opacity:1" fill="#c61e1d" d="M 477.5,349.5 C 483.167,349.5 488.833,349.5 494.5,349.5C 492.457,402.452 468.79,442.286 423.5,469C 420.518,469.498 417.518,469.665 414.5,469.5C 454.943,439.957 475.943,399.957 477.5,349.5 Z"/></g>
<g><path style="opacity:1" fill="#030101" d="M 77.5,366.5 C 97.3425,364.827 110.842,373.16 118,391.5C 121.356,413.443 112.523,427.609 91.5,434C 69.3675,436.017 55.8675,426.184 51,404.5C 50.2114,385.122 59.0448,372.455 77.5,366.5 Z"/></g>
<g><path style="opacity:1" fill="#030101" d="M 162.5,366.5 C 182.117,364.385 195.617,372.385 203,390.5C 206.677,410.648 199.177,424.814 180.5,433C 160.261,437.631 146.094,430.464 138,411.5C 133.114,389.265 141.281,374.265 162.5,366.5 Z"/></g>
<g><path style="opacity:1" fill="#030101" d="M 248.5,366.5 C 276.187,365.688 289.687,379.021 289,406.5C 283.196,427.501 269.363,436.667 247.5,434C 227.95,427.084 219.45,413.25 222,392.5C 226.122,378.877 234.955,370.21 248.5,366.5 Z"/></g>
<g><path style="opacity:1" fill="#030101" d="M 333.5,366.5 C 353.342,364.827 366.842,373.16 374,391.5C 377.356,413.443 368.523,427.609 347.5,434C 325.368,436.017 311.868,426.184 307,404.5C 306.211,385.122 315.045,372.455 333.5,366.5 Z"/></g>
<g><path style="opacity:1" fill="#030101" d="M 418.5,366.5 C 438.117,364.385 451.617,372.385 459,390.5C 462.677,410.648 455.177,424.814 436.5,433C 416.261,437.631 402.094,430.464 394,411.5C 389.114,389.265 397.281,374.265 418.5,366.5 Z"/></g>
<g><path style="opacity:1" fill="#01a5ef" d="M 165.5,383.5 C 180.169,383.004 187.336,390.004 187,404.5C 182.465,416.017 174.298,419.851 162.5,416C 153.223,409.418 151.056,400.918 156,390.5C 158.825,387.524 161.992,385.191 165.5,383.5 Z"/></g>
<g><path style="opacity:1" fill="#01a5ef" d="M 421.5,383.5 C 436.169,383.004 443.336,390.004 443,404.5C 438.465,416.017 430.298,419.851 418.5,416C 409.223,409.418 407.056,400.918 412,390.5C 414.825,387.524 417.992,385.191 421.5,383.5 Z"/></g>
<g><path style="opacity:1" fill="#01a6f0" d="M 79.5,383.5 C 97.216,383.041 104.049,391.375 100,408.5C 93.7075,417.449 85.5408,419.616 75.5,415C 63.8869,402.795 65.2203,392.295 79.5,383.5 Z"/></g>
<g><path style="opacity:1" fill="#01a6ef" d="M 250.5,383.5 C 266.315,382.481 273.482,389.815 272,405.5C 265.781,417.572 256.615,420.405 244.5,414C 234.965,401.451 236.965,391.284 250.5,383.5 Z"/></g>
<g><path style="opacity:1" fill="#01a6f0" d="M 335.5,383.5 C 353.216,383.041 360.049,391.375 356,408.5C 349.707,417.449 341.541,419.616 331.5,415C 319.887,402.795 321.22,392.295 335.5,383.5 Z"/></g>
</svg>
