<?xml version="1.0" standalone="no"?>
<!DOCTYPE svg PUBLIC "-//W3C//DTD SVG 20010904//EN"
 "http://www.w3.org/TR/2001/REC-SVG-20010904/DTD/svg10.dtd">
<svg version="1.0" xmlns="http://www.w3.org/2000/svg"
 width="128.000000pt" height="128.000000pt" viewBox="0 0 128.000000 128.000000"
 preserveAspectRatio="xMidYMid meet">

<g transform="translate(0.000000,128.000000) scale(0.100000,-0.100000)"
fill="#000000" stroke="none">
<path d="M215 956 c-13 -9 -16 -20 -12 -37 7 -27 -31 -99 -74 -140 -37 -34
-59 -115 -59 -214 0 -77 1 -83 30 -110 17 -16 30 -37 30 -46 0 -29 49 -78 90
-90 51 -16 107 10 135 63 l20 38 253 0 c211 0 252 -2 252 -14 0 -26 51 -75 90
-87 51 -15 107 11 135 63 14 27 28 38 52 43 45 8 53 29 53 133 0 76 -3 94 -23
123 -28 44 -108 84 -196 100 -68 12 -72 14 -165 100 l-96 89 -248 0 c-193 0
-252 -3 -267 -14z m571 -68 l29 -33 -32 29 c-31 28 -38 36 -30 36 2 0 16 -15
33 -32z m-31 -8 c10 -11 16 -20 13 -20 -3 0 -13 9 -23 20 -10 11 -16 20 -13
20 3 0 13 -9 23 -20z m-310 -47 c9 -32 18 -66 21 -75 5 -16 -5 -18 -110 -18
-129 0 -128 -1 -100 66 9 22 20 49 25 62 8 20 15 22 78 22 l70 0 16 -57z m328
-11 c37 -37 64 -71 61 -75 -4 -4 -71 -7 -149 -7 l-143 0 -16 65 c-9 35 -16 69
-16 75 0 6 36 10 98 10 l98 0 67 -68z m-623 -85 c0 -22 -35 -66 -44 -56 -7 7
25 79 35 79 5 0 9 -11 9 -23z m283 -24 c-34 -2 -93 -2 -130 0 -37 2 -9 3 62 3
72 0 102 -1 68 -3z m325 0 c-43 -2 -113 -2 -155 0 -43 1 -8 3 77 3 85 0 120
-2 78 -3z m343 -44 c16 -11 27 -25 24 -29 -7 -11 -56 6 -67 23 -21 33 2 36 43
6z m86 -156 c-2 -21 -4 -6 -4 32 0 39 2 55 4 38 2 -18 2 -50 0 -70z m-1090 25
c-2 -13 -4 -5 -4 17 -1 22 1 32 4 23 2 -10 2 -28 0 -40z m196 -20 c34 -18 46
-40 47 -84 0 -105 -139 -132 -180 -35 -34 82 54 161 133 119z m766 -14 c26
-21 31 -33 31 -69 0 -36 -5 -48 -31 -69 -40 -34 -88 -34 -126 -2 -23 20 -28
32 -28 71 0 39 5 51 28 71 38 32 86 32 126 -2z m-938 -31 c13 -16 12 -17 -3
-4 -10 7 -18 15 -18 17 0 8 8 3 21 -13z"/>
<path d="M210 482 c-30 -24 -30 -70 0 -94 44 -36 100 -10 100 47 0 57 -56 83
-100 47z m64 -18 c9 -8 16 -22 16 -29 0 -13 -26 -45 -36 -45 -39 0 -59 60 -26
79 23 14 28 14 46 -5z"/>
<path d="M951 474 c-12 -15 -21 -32 -21 -39 0 -24 41 -65 66 -65 31 0 64 33
64 65 0 32 -33 65 -64 65 -15 0 -33 -11 -45 -26z m71 -11 c23 -21 23 -36 -1
-57 -15 -14 -24 -15 -40 -6 -26 13 -28 55 -3 69 23 14 23 14 44 -6z"/>
</g>
</svg>
